<?xml version="1.0" encoding="UTF-8" standalone="no"?>
<!DOCTYPE svg PUBLIC "-//W3C//DTD SVG 1.1//EN" "http://www.w3.org/Graphics/SVG/1.1/DTD/svg11.dtd">
<svg width="100%" height="100%" viewBox="0 0 48 48" version="1.1" xmlns="http://www.w3.org/2000/svg" xmlns:xlink="http://www.w3.org/1999/xlink" xml:space="preserve" xmlns:serif="http://www.serif.com/" style="fill-rule:evenodd;clip-rule:evenodd;stroke-linejoin:round;stroke-miterlimit:2;">
    <path d="M16.223,44.992C18.155,44.992 19.721,43.425 19.721,41.493C19.721,39.561 18.155,37.995 16.223,37.995C14.291,37.995 12.725,39.561 12.725,41.493C12.725,43.425 14.291,44.992 16.223,44.992Z" style="fill:white;fill-rule:nonzero;stroke:white;stroke-width:1px;"/>
    <path d="M40.714,44.992C42.646,44.992 44.213,43.425 44.213,41.493C44.213,39.561 42.646,37.995 40.714,37.995C38.782,37.995 37.216,39.561 37.216,41.493C37.216,43.425 38.782,44.992 40.714,44.992Z" style="fill:white;fill-rule:nonzero;stroke:white;stroke-width:1px;"/>
    <path d="M46.923,9.216C46.677,8.915 46.367,8.673 46.017,8.507C45.666,8.341 45.282,8.255 44.894,8.256L11.62,8.256L10.949,4.454C10.878,4.049 10.666,3.682 10.351,3.417C10.036,3.153 9.638,3.008 9.226,3.008L2.229,3.008C1.765,3.008 1.32,3.193 0.992,3.521C0.664,3.849 0.48,4.294 0.48,4.758C0.48,5.221 0.664,5.666 0.992,5.995C1.32,6.323 1.765,6.507 2.229,6.507L7.759,6.507L12.751,34.799C12.823,35.204 13.035,35.571 13.35,35.835C13.665,36.099 14.063,36.244 14.474,36.244L42.462,36.244C42.926,36.244 43.371,36.06 43.699,35.732C44.027,35.404 44.212,34.959 44.212,34.495C44.212,34.031 44.027,33.586 43.699,33.258C43.371,32.93 42.926,32.746 42.462,32.746L15.941,32.746L15.325,29.247L41.745,29.247C42.352,29.246 42.94,29.036 43.409,28.652C43.878,28.267 44.2,27.733 44.321,27.138L47.469,11.395C47.545,11.014 47.536,10.621 47.441,10.244C47.347,9.867 47.17,9.516 46.923,9.216Z" style="fill:white;fill-rule:nonzero;stroke:white;stroke-width:1px;"/>
</svg>
